#!OML:ASF H:\Dans Jumps\Project 1\Capture day 1\Session 1\subject.ASF
:FULLY-SPECIFIED
:DEGREES
297
root 0.0915476 19.4195 1.68988 7.86835 1.20194 -0.56891
lowerback 8.71045 0.322136 -1.94553
upperback 5.87344 0.297101 1.30767
thorax 1.18703 0.0727276 2.42074
lowerneck -12.3076 -0.135418 -2.49649
upperneck 27.0283 -0.201733 2.21587
head 10.7095 -0.0789527 1.19939
rclavicle -3.57812e-015 4.77083e-015
rhumerus -37.6654 -6.73286 -78.8433
rradius 33.0657
rwrist 32.7283
rhand -17.2344 -27.1016
rfingers 7.12502
rthumb 9.00918 -56.8892
lclavicle -3.57812e-015 4.77083e-015
lhumerus -34.5728 6.60702 65.1393
lradius 12.8559
lwrist 7.32065
lhand -21.714 -6.00059
lfingers 7.12502
lthumb 4.68494 23.9276
rfemur -34.8119 -6.89354 20.4839
rtibia 21.6727
rfoot 19.4227 -7.60398
rtoes 17.7395
lfemur -34.5946 8.52535 -18.0037
ltibia 18.4358
lfoot 21.0019 -2.88367
ltoes -3.77024
298
root 0.0924804 19.079 1.91174 7.18406 0.988548 -0.472351
lowerback 8.8236 0.407065 -2.01417
upperback 5.90799 0.402776 1.2408
thorax 1.15515 0.124759 2.38189
lowerneck -12.2524 -0.144235 -2.46117
upperneck 27.372 -0.236352 2.24839
head 10.8279 -0.0884494 1.20427
rclavicle 1.14301e-015 1.19271e-015
rhumerus -37.7863 -6.97479 -78.8279
rradius 33.0214
rwrist 32.7088
rhand -17.3814 -27.1288
rfingers 7.12502
rthumb 8.86731 -56.9225
lclavicle 1.14301e-015 1.19271e-015
lhumerus -34.6409 7.13415 64.9793
lradius 12.7191
lwrist 7.04822
lhand -21.6829 -6.05896
lfingers 7.12502
lthumb 4.71492 23.8686
rfemur -34.5496 -6.8113 20.2691
rtibia 23.5528
rfoot 19.1509 -6.30998
rtoes 17.0381
lfemur -34.2869 8.70689 -18.0755
ltibia 20.0383
lfoot 21.2789 -3.34838
ltoes -4.20242
299
root 0.0932621 18.7192 2.13872 6.41475 0.817742 -0.380529
lowerback 8.96992 0.491413 -2.06949
upperback 5.90883 0.507828 1.18795
thorax 1.07004 0.177684 2.34945
lowerneck -12.2327 -0.160342 -2.45502
upperneck 27.7357 -0.284834 2.31979
head 10.9621 -0.102238 1.22696
rclavicle -7.8023e-015 -1.78906e-015
rhumerus -37.9502 -7.30253 -78.7128
rradius 32.911
rwrist 32.772
rhand -17.5013 -27.1495
rfingers 7.12502
rthumb 8.75164 -56.948
lclavicle -7.8023e-015 -1.78906e-015
lhumerus -34.6845 7.64689 64.8506
lradius 12.5812
lwrist 6.77488
lhand -21.6244 -6.11425
lfingers 7.12502
lthumb 4.77143 23.812
rfemur -34.1873 -6.70288 20.047
rtibia 25.7254
rfoot 17.4293 -3.76428
rtoes 14.8802
lfemur -33.9171 8.88876 -18.1577
ltibia 22.0266
lfoot 20.8809 -4.45726
ltoes -4.59013
300
root 0.0941564 18.3477 2.36679 5.57398 0.697413 -0.302201
lowerback 9.15194 0.572595 -2.09651
upperback 5.86853 0.609803 1.15126
thorax 0.922821 0.23085 2.31712
lowerneck -12.2421 -0.186427 -2.47883
upperneck 28.1002 -0.351968 2.43303
head 11.1041 -0.122134 1.26801
rclavicle 3.47873e-015 1.98785e-016
rhumerus -38.1725 -7.69935 -78.499
rradius 32.7576
rwrist 32.9302
rhand -17.5821 -27.1766
rfingers 7.12502
rthumb 8.67366 -56.9784
lclavicle 3.47873e-015 1.98785e-016
lhumerus -34.7177 8.18938 64.7309
lradius 12.4476
lwrist 6.38326
lhand -21.5554 -6.17245
lfingers 7.12502
lthumb 4.83806 23.7523
rfemur -33.7681 -6.58504 19.8325
rtibia 28.1999
rfoot 13.9118 -0.459754
rtoes 12.2837
lfemur -33.5253 9.09278 -18.2566
ltibia 24.4117
lfoot 19.266 -6.13537
ltoes -5.08032
301
root 0.0957133 17.9732 2.59073 4.68018 0.640227 -0.250638
lowerback 9.37895 0.641809 -2.07892
upperback 5.79036 0.698304 1.1357
thorax 0.712572 0.279311 2.28152
lowerneck -12.2883 -0.22488 -2.5348
upperneck 28.4388 -0.439302 2.58381
head 11.2455 -0.149453 1.32592
rclavicle -7.95139e-015 -7.55382e-015
rhumerus -38.4124 -8.16755 -78.1875
rradius 32.5482
rwrist 33.2011
rhand -17.6554 -27.2303
rfingers 7.12502
rthumb 8.60293 -57.0351
lclavicle -7.95139e-015 -7.55382e-015
lhumerus -34.718 8.82301 64.609
lradius 12.3109
lwrist 5.80057
lhand -21.5339 -6.21994
lfingers 7.12502
lthumb 4.85884 23.7044
rfemur -33.3529 -6.43448 19.6323
rtibia 31.0241
rfoot 8.63433 2.92017
rtoes 9.98111
lfemur -33.1155 9.25032 -18.3292
ltibia 27.1606
lfoot 15.8839 -8.02462
ltoes -5.68651
302
root 0.0985233 17.5978 2.80589 3.76339 0.648953 -0.252116
lowerback 9.66638 0.69277 -1.99316
upperback 5.67281 0.76719 1.148
thorax 0.429959 0.320377 2.23671
lowerneck -12.3538 -0.273774 -2.615
upperneck 28.7259 -0.542844 2.76027
head 11.3728 -0.18303 1.39516
rclavicle -6.36111e-015 -4.96962e-015
rhumerus -38.6022 -8.74595 -77.7747
rradius 32.2379
rwrist 33.6339
rhand -17.7407 -27.351
rfingers 7.12502
rthumb 8.52061 -57.1591
lclavicle -6.36111e-015 -4.96962e-015
lhumerus -34.6883 9.59773 64.4877
lradius 12.1895
lwrist 5.01776
lhand -21.6684 -6.30339
lfingers 7.12502
lthumb 4.72901 23.6238
rfemur -33.0306 -6.22477 19.4745
rtibia 34.2328
rfoot 2.18727 5.35506
rtoes 8.49535
lfemur -32.8224 9.33613 -18.3429
ltibia 30.3202
lfoot 10.5427 -9.50578
ltoes -6.97879
